<mxfile host="app.diagrams.net" modified="2023-12-16T02:39:01.580Z" agent="Mozilla/5.0 (Windows NT 10.0; Win64; x64; rv:120.0) Gecko/20100101 Firefox/120.0" etag="YNf_nxqKlNdeYmrDxAwq" version="22.1.11" type="github" pages="3">
  <diagram name="Personal Administrativo" id="gVJ-1TvxZQ9Q56XMVppU">
    <mxGraphModel dx="1386" dy="715" grid="1" gridSize="10" guides="1" tooltips="1" connect="1" arrows="1" fold="1" page="1" pageScale="1" pageWidth="850" pageHeight="1100" math="0" shadow="0">
      <root>
        <mxCell id="0" />
        <mxCell id="1" parent="0" />
        <mxCell id="kU5P1Gjw6cB3Nd-AVzcD-23" style="edgeStyle=orthogonalEdgeStyle;rounded=0;orthogonalLoop=1;jettySize=auto;html=1;exitX=0.5;exitY=1;exitDx=0;exitDy=0;entryX=0.5;entryY=0;entryDx=0;entryDy=0;" edge="1" parent="1" source="kU5P1Gjw6cB3Nd-AVzcD-1" target="kU5P1Gjw6cB3Nd-AVzcD-6">
          <mxGeometry relative="1" as="geometry" />
        </mxCell>
        <mxCell id="kU5P1Gjw6cB3Nd-AVzcD-25" style="edgeStyle=orthogonalEdgeStyle;rounded=0;orthogonalLoop=1;jettySize=auto;html=1;exitX=0.5;exitY=1;exitDx=0;exitDy=0;entryX=0.5;entryY=0;entryDx=0;entryDy=0;" edge="1" parent="1" source="kU5P1Gjw6cB3Nd-AVzcD-1" target="kU5P1Gjw6cB3Nd-AVzcD-14">
          <mxGeometry relative="1" as="geometry" />
        </mxCell>
        <mxCell id="kU5P1Gjw6cB3Nd-AVzcD-26" style="edgeStyle=orthogonalEdgeStyle;rounded=0;orthogonalLoop=1;jettySize=auto;html=1;exitX=0.5;exitY=1;exitDx=0;exitDy=0;entryX=0.5;entryY=0;entryDx=0;entryDy=0;" edge="1" parent="1" source="kU5P1Gjw6cB3Nd-AVzcD-1" target="kU5P1Gjw6cB3Nd-AVzcD-18">
          <mxGeometry relative="1" as="geometry" />
        </mxCell>
        <mxCell id="kU5P1Gjw6cB3Nd-AVzcD-27" style="edgeStyle=orthogonalEdgeStyle;rounded=0;orthogonalLoop=1;jettySize=auto;html=1;exitX=0.5;exitY=1;exitDx=0;exitDy=0;entryX=0.5;entryY=0;entryDx=0;entryDy=0;" edge="1" parent="1" source="kU5P1Gjw6cB3Nd-AVzcD-1" target="kU5P1Gjw6cB3Nd-AVzcD-2">
          <mxGeometry relative="1" as="geometry" />
        </mxCell>
        <mxCell id="kU5P1Gjw6cB3Nd-AVzcD-1" value="Personal Administrativo" style="rounded=1;whiteSpace=wrap;html=1;fillColor=#FF9999;" vertex="1" parent="1">
          <mxGeometry x="370" y="60" width="120" height="60" as="geometry" />
        </mxCell>
        <mxCell id="kU5P1Gjw6cB3Nd-AVzcD-28" style="edgeStyle=orthogonalEdgeStyle;rounded=0;orthogonalLoop=1;jettySize=auto;html=1;exitX=0.5;exitY=1;exitDx=0;exitDy=0;entryX=0;entryY=0.5;entryDx=0;entryDy=0;" edge="1" parent="1" source="kU5P1Gjw6cB3Nd-AVzcD-2" target="kU5P1Gjw6cB3Nd-AVzcD-3">
          <mxGeometry relative="1" as="geometry" />
        </mxCell>
        <mxCell id="kU5P1Gjw6cB3Nd-AVzcD-2" value="Historia Clinica" style="rounded=1;whiteSpace=wrap;html=1;" vertex="1" parent="1">
          <mxGeometry x="30" y="160" width="120" height="60" as="geometry" />
        </mxCell>
        <mxCell id="kU5P1Gjw6cB3Nd-AVzcD-29" style="edgeStyle=orthogonalEdgeStyle;rounded=0;orthogonalLoop=1;jettySize=auto;html=1;exitX=0;exitY=0.5;exitDx=0;exitDy=0;entryX=0;entryY=0.5;entryDx=0;entryDy=0;" edge="1" parent="1" source="kU5P1Gjw6cB3Nd-AVzcD-3" target="kU5P1Gjw6cB3Nd-AVzcD-4">
          <mxGeometry relative="1" as="geometry" />
        </mxCell>
        <mxCell id="kU5P1Gjw6cB3Nd-AVzcD-3" value="Buscar Paciente" style="rounded=1;whiteSpace=wrap;html=1;" vertex="1" parent="1">
          <mxGeometry x="70" y="240" width="120" height="60" as="geometry" />
        </mxCell>
        <mxCell id="kU5P1Gjw6cB3Nd-AVzcD-30" style="edgeStyle=orthogonalEdgeStyle;rounded=0;orthogonalLoop=1;jettySize=auto;html=1;exitX=0;exitY=0.5;exitDx=0;exitDy=0;entryX=0;entryY=0.5;entryDx=0;entryDy=0;" edge="1" parent="1" source="kU5P1Gjw6cB3Nd-AVzcD-4" target="kU5P1Gjw6cB3Nd-AVzcD-9">
          <mxGeometry relative="1" as="geometry" />
        </mxCell>
        <mxCell id="kU5P1Gjw6cB3Nd-AVzcD-4" value="Ingresar Paciente" style="rounded=1;whiteSpace=wrap;html=1;" vertex="1" parent="1">
          <mxGeometry x="70" y="320" width="120" height="60" as="geometry" />
        </mxCell>
        <mxCell id="kU5P1Gjw6cB3Nd-AVzcD-31" style="edgeStyle=orthogonalEdgeStyle;rounded=0;orthogonalLoop=1;jettySize=auto;html=1;exitX=0.5;exitY=1;exitDx=0;exitDy=0;entryX=0;entryY=0.5;entryDx=0;entryDy=0;" edge="1" parent="1" source="kU5P1Gjw6cB3Nd-AVzcD-6" target="kU5P1Gjw6cB3Nd-AVzcD-7">
          <mxGeometry relative="1" as="geometry" />
        </mxCell>
        <mxCell id="kU5P1Gjw6cB3Nd-AVzcD-6" value="Atencion Urgencia" style="rounded=1;whiteSpace=wrap;html=1;" vertex="1" parent="1">
          <mxGeometry x="200" y="160" width="120" height="60" as="geometry" />
        </mxCell>
        <mxCell id="kU5P1Gjw6cB3Nd-AVzcD-32" style="edgeStyle=orthogonalEdgeStyle;rounded=0;orthogonalLoop=1;jettySize=auto;html=1;exitX=0;exitY=0.5;exitDx=0;exitDy=0;entryX=0;entryY=0.5;entryDx=0;entryDy=0;" edge="1" parent="1" source="kU5P1Gjw6cB3Nd-AVzcD-7" target="kU5P1Gjw6cB3Nd-AVzcD-8">
          <mxGeometry relative="1" as="geometry" />
        </mxCell>
        <mxCell id="kU5P1Gjw6cB3Nd-AVzcD-7" value="Ingreso" style="rounded=1;whiteSpace=wrap;html=1;" vertex="1" parent="1">
          <mxGeometry x="240" y="240" width="120" height="60" as="geometry" />
        </mxCell>
        <mxCell id="kU5P1Gjw6cB3Nd-AVzcD-8" value="Alta" style="rounded=1;whiteSpace=wrap;html=1;" vertex="1" parent="1">
          <mxGeometry x="240" y="320" width="120" height="60" as="geometry" />
        </mxCell>
        <mxCell id="kU5P1Gjw6cB3Nd-AVzcD-9" value="Actualizar Paciente" style="rounded=1;whiteSpace=wrap;html=1;" vertex="1" parent="1">
          <mxGeometry x="70" y="400" width="120" height="60" as="geometry" />
        </mxCell>
        <mxCell id="kU5P1Gjw6cB3Nd-AVzcD-33" style="edgeStyle=orthogonalEdgeStyle;rounded=0;orthogonalLoop=1;jettySize=auto;html=1;exitX=0.5;exitY=1;exitDx=0;exitDy=0;entryX=0;entryY=0.5;entryDx=0;entryDy=0;" edge="1" parent="1" source="kU5P1Gjw6cB3Nd-AVzcD-10" target="kU5P1Gjw6cB3Nd-AVzcD-11">
          <mxGeometry relative="1" as="geometry" />
        </mxCell>
        <mxCell id="kU5P1Gjw6cB3Nd-AVzcD-10" value="Hospitalización" style="rounded=1;whiteSpace=wrap;html=1;" vertex="1" parent="1">
          <mxGeometry x="370" y="160" width="120" height="60" as="geometry" />
        </mxCell>
        <mxCell id="kU5P1Gjw6cB3Nd-AVzcD-34" style="edgeStyle=orthogonalEdgeStyle;rounded=0;orthogonalLoop=1;jettySize=auto;html=1;exitX=0;exitY=0.5;exitDx=0;exitDy=0;entryX=0;entryY=0.5;entryDx=0;entryDy=0;" edge="1" parent="1" source="kU5P1Gjw6cB3Nd-AVzcD-11" target="kU5P1Gjw6cB3Nd-AVzcD-12">
          <mxGeometry relative="1" as="geometry" />
        </mxCell>
        <mxCell id="kU5P1Gjw6cB3Nd-AVzcD-11" value="Ingreso" style="rounded=1;whiteSpace=wrap;html=1;" vertex="1" parent="1">
          <mxGeometry x="410" y="240" width="120" height="60" as="geometry" />
        </mxCell>
        <mxCell id="kU5P1Gjw6cB3Nd-AVzcD-35" style="edgeStyle=orthogonalEdgeStyle;rounded=0;orthogonalLoop=1;jettySize=auto;html=1;exitX=0;exitY=0.5;exitDx=0;exitDy=0;entryX=0;entryY=0.5;entryDx=0;entryDy=0;" edge="1" parent="1" source="kU5P1Gjw6cB3Nd-AVzcD-12" target="kU5P1Gjw6cB3Nd-AVzcD-13">
          <mxGeometry relative="1" as="geometry" />
        </mxCell>
        <mxCell id="kU5P1Gjw6cB3Nd-AVzcD-12" value="Alta" style="rounded=1;whiteSpace=wrap;html=1;" vertex="1" parent="1">
          <mxGeometry x="410" y="320" width="120" height="60" as="geometry" />
        </mxCell>
        <mxCell id="kU5P1Gjw6cB3Nd-AVzcD-13" value="Gestión Camas" style="rounded=1;whiteSpace=wrap;html=1;" vertex="1" parent="1">
          <mxGeometry x="410" y="400" width="120" height="60" as="geometry" />
        </mxCell>
        <mxCell id="kU5P1Gjw6cB3Nd-AVzcD-37" style="edgeStyle=orthogonalEdgeStyle;rounded=0;orthogonalLoop=1;jettySize=auto;html=1;exitX=0.5;exitY=1;exitDx=0;exitDy=0;entryX=0;entryY=0.5;entryDx=0;entryDy=0;" edge="1" parent="1" source="kU5P1Gjw6cB3Nd-AVzcD-14" target="kU5P1Gjw6cB3Nd-AVzcD-15">
          <mxGeometry relative="1" as="geometry" />
        </mxCell>
        <mxCell id="kU5P1Gjw6cB3Nd-AVzcD-14" value="Centro Quirurgico" style="rounded=1;whiteSpace=wrap;html=1;" vertex="1" parent="1">
          <mxGeometry x="530" y="160" width="120" height="60" as="geometry" />
        </mxCell>
        <mxCell id="kU5P1Gjw6cB3Nd-AVzcD-38" style="edgeStyle=orthogonalEdgeStyle;rounded=0;orthogonalLoop=1;jettySize=auto;html=1;exitX=0;exitY=0.5;exitDx=0;exitDy=0;entryX=0;entryY=0.5;entryDx=0;entryDy=0;" edge="1" parent="1" source="kU5P1Gjw6cB3Nd-AVzcD-15" target="kU5P1Gjw6cB3Nd-AVzcD-16">
          <mxGeometry relative="1" as="geometry" />
        </mxCell>
        <mxCell id="kU5P1Gjw6cB3Nd-AVzcD-15" value="Ingreso" style="rounded=1;whiteSpace=wrap;html=1;" vertex="1" parent="1">
          <mxGeometry x="570" y="240" width="120" height="60" as="geometry" />
        </mxCell>
        <mxCell id="kU5P1Gjw6cB3Nd-AVzcD-39" style="edgeStyle=orthogonalEdgeStyle;rounded=0;orthogonalLoop=1;jettySize=auto;html=1;exitX=0;exitY=0.5;exitDx=0;exitDy=0;entryX=0;entryY=0.5;entryDx=0;entryDy=0;" edge="1" parent="1" source="kU5P1Gjw6cB3Nd-AVzcD-16" target="kU5P1Gjw6cB3Nd-AVzcD-17">
          <mxGeometry relative="1" as="geometry" />
        </mxCell>
        <mxCell id="kU5P1Gjw6cB3Nd-AVzcD-16" value="Gestión Pabellones" style="rounded=1;whiteSpace=wrap;html=1;" vertex="1" parent="1">
          <mxGeometry x="570" y="320" width="120" height="60" as="geometry" />
        </mxCell>
        <mxCell id="kU5P1Gjw6cB3Nd-AVzcD-17" value="Alta" style="rounded=1;whiteSpace=wrap;html=1;" vertex="1" parent="1">
          <mxGeometry x="570" y="400" width="120" height="60" as="geometry" />
        </mxCell>
        <mxCell id="kU5P1Gjw6cB3Nd-AVzcD-40" style="edgeStyle=orthogonalEdgeStyle;rounded=0;orthogonalLoop=1;jettySize=auto;html=1;exitX=0.5;exitY=1;exitDx=0;exitDy=0;entryX=0;entryY=0.5;entryDx=0;entryDy=0;" edge="1" parent="1" source="kU5P1Gjw6cB3Nd-AVzcD-18" target="kU5P1Gjw6cB3Nd-AVzcD-19">
          <mxGeometry relative="1" as="geometry" />
        </mxCell>
        <mxCell id="kU5P1Gjw6cB3Nd-AVzcD-18" value="Atenciones Médicas" style="rounded=1;whiteSpace=wrap;html=1;" vertex="1" parent="1">
          <mxGeometry x="690" y="160" width="120" height="60" as="geometry" />
        </mxCell>
        <mxCell id="kU5P1Gjw6cB3Nd-AVzcD-19" value="Citados por Día" style="rounded=1;whiteSpace=wrap;html=1;" vertex="1" parent="1">
          <mxGeometry x="730" y="240" width="120" height="60" as="geometry" />
        </mxCell>
        <mxCell id="kU5P1Gjw6cB3Nd-AVzcD-24" style="edgeStyle=orthogonalEdgeStyle;rounded=0;orthogonalLoop=1;jettySize=auto;html=1;exitX=0.5;exitY=1;exitDx=0;exitDy=0;entryX=0.575;entryY=0.033;entryDx=0;entryDy=0;entryPerimeter=0;" edge="1" parent="1" source="kU5P1Gjw6cB3Nd-AVzcD-1" target="kU5P1Gjw6cB3Nd-AVzcD-10">
          <mxGeometry relative="1" as="geometry" />
        </mxCell>
      </root>
    </mxGraphModel>
  </diagram>
  <diagram id="Iemw266D8WK53zkCzXzq" name="Personal de Salud">
    <mxGraphModel dx="1980" dy="1021" grid="1" gridSize="10" guides="1" tooltips="1" connect="1" arrows="1" fold="1" page="1" pageScale="1" pageWidth="850" pageHeight="1100" math="0" shadow="0">
      <root>
        <mxCell id="0" />
        <mxCell id="1" parent="0" />
        <mxCell id="7941T6qGyt0lRl8GdlBB-1" style="edgeStyle=orthogonalEdgeStyle;rounded=0;orthogonalLoop=1;jettySize=auto;html=1;exitX=0.5;exitY=1;exitDx=0;exitDy=0;entryX=0.5;entryY=0;entryDx=0;entryDy=0;" edge="1" parent="1" source="7941T6qGyt0lRl8GdlBB-5" target="7941T6qGyt0lRl8GdlBB-13">
          <mxGeometry relative="1" as="geometry" />
        </mxCell>
        <mxCell id="7941T6qGyt0lRl8GdlBB-2" style="edgeStyle=orthogonalEdgeStyle;rounded=0;orthogonalLoop=1;jettySize=auto;html=1;exitX=0.5;exitY=1;exitDx=0;exitDy=0;entryX=0.5;entryY=0;entryDx=0;entryDy=0;" edge="1" parent="1" source="7941T6qGyt0lRl8GdlBB-5" target="7941T6qGyt0lRl8GdlBB-26">
          <mxGeometry relative="1" as="geometry" />
        </mxCell>
        <mxCell id="7941T6qGyt0lRl8GdlBB-3" style="edgeStyle=orthogonalEdgeStyle;rounded=0;orthogonalLoop=1;jettySize=auto;html=1;exitX=0.5;exitY=1;exitDx=0;exitDy=0;entryX=0.5;entryY=0;entryDx=0;entryDy=0;" edge="1" parent="1" source="7941T6qGyt0lRl8GdlBB-5" target="7941T6qGyt0lRl8GdlBB-33">
          <mxGeometry relative="1" as="geometry" />
        </mxCell>
        <mxCell id="7941T6qGyt0lRl8GdlBB-4" style="edgeStyle=orthogonalEdgeStyle;rounded=0;orthogonalLoop=1;jettySize=auto;html=1;exitX=0.5;exitY=1;exitDx=0;exitDy=0;entryX=0.5;entryY=0;entryDx=0;entryDy=0;" edge="1" parent="1" source="7941T6qGyt0lRl8GdlBB-5" target="7941T6qGyt0lRl8GdlBB-7">
          <mxGeometry relative="1" as="geometry" />
        </mxCell>
        <mxCell id="7941T6qGyt0lRl8GdlBB-70" style="edgeStyle=orthogonalEdgeStyle;rounded=0;orthogonalLoop=1;jettySize=auto;html=1;exitX=0.5;exitY=1;exitDx=0;exitDy=0;entryX=0.5;entryY=0;entryDx=0;entryDy=0;" edge="1" parent="1" source="7941T6qGyt0lRl8GdlBB-5" target="7941T6qGyt0lRl8GdlBB-49">
          <mxGeometry relative="1" as="geometry" />
        </mxCell>
        <mxCell id="7941T6qGyt0lRl8GdlBB-71" style="edgeStyle=orthogonalEdgeStyle;rounded=0;orthogonalLoop=1;jettySize=auto;html=1;exitX=0.5;exitY=1;exitDx=0;exitDy=0;entryX=0.5;entryY=0;entryDx=0;entryDy=0;" edge="1" parent="1" source="7941T6qGyt0lRl8GdlBB-5" target="7941T6qGyt0lRl8GdlBB-57">
          <mxGeometry relative="1" as="geometry" />
        </mxCell>
        <mxCell id="7941T6qGyt0lRl8GdlBB-72" style="edgeStyle=orthogonalEdgeStyle;rounded=0;orthogonalLoop=1;jettySize=auto;html=1;exitX=0.5;exitY=1;exitDx=0;exitDy=0;entryX=0.5;entryY=0;entryDx=0;entryDy=0;" edge="1" parent="1" source="7941T6qGyt0lRl8GdlBB-5" target="7941T6qGyt0lRl8GdlBB-64">
          <mxGeometry relative="1" as="geometry" />
        </mxCell>
        <mxCell id="7941T6qGyt0lRl8GdlBB-5" value="Personal de Salud" style="rounded=1;whiteSpace=wrap;html=1;fillColor=#FF9999;" vertex="1" parent="1">
          <mxGeometry x="610" y="50" width="120" height="60" as="geometry" />
        </mxCell>
        <mxCell id="7941T6qGyt0lRl8GdlBB-6" style="edgeStyle=orthogonalEdgeStyle;rounded=0;orthogonalLoop=1;jettySize=auto;html=1;exitX=0.5;exitY=1;exitDx=0;exitDy=0;entryX=0;entryY=0.5;entryDx=0;entryDy=0;" edge="1" parent="1" source="7941T6qGyt0lRl8GdlBB-7" target="7941T6qGyt0lRl8GdlBB-9">
          <mxGeometry relative="1" as="geometry" />
        </mxCell>
        <mxCell id="7941T6qGyt0lRl8GdlBB-7" value="Historia Clinica" style="rounded=1;whiteSpace=wrap;html=1;" vertex="1" parent="1">
          <mxGeometry x="30" y="160" width="120" height="60" as="geometry" />
        </mxCell>
        <mxCell id="7941T6qGyt0lRl8GdlBB-8" style="edgeStyle=orthogonalEdgeStyle;rounded=0;orthogonalLoop=1;jettySize=auto;html=1;exitX=0;exitY=0.5;exitDx=0;exitDy=0;entryX=0;entryY=0.5;entryDx=0;entryDy=0;" edge="1" parent="1" source="7941T6qGyt0lRl8GdlBB-9" target="7941T6qGyt0lRl8GdlBB-11">
          <mxGeometry relative="1" as="geometry" />
        </mxCell>
        <mxCell id="7941T6qGyt0lRl8GdlBB-9" value="Buscar Paciente" style="rounded=1;whiteSpace=wrap;html=1;" vertex="1" parent="1">
          <mxGeometry x="70" y="240" width="120" height="60" as="geometry" />
        </mxCell>
        <mxCell id="7941T6qGyt0lRl8GdlBB-10" style="edgeStyle=orthogonalEdgeStyle;rounded=0;orthogonalLoop=1;jettySize=auto;html=1;exitX=0;exitY=0.5;exitDx=0;exitDy=0;entryX=0;entryY=0.5;entryDx=0;entryDy=0;" edge="1" parent="1" source="7941T6qGyt0lRl8GdlBB-11" target="7941T6qGyt0lRl8GdlBB-17">
          <mxGeometry relative="1" as="geometry" />
        </mxCell>
        <mxCell id="7941T6qGyt0lRl8GdlBB-11" value="Ingresar Paciente" style="rounded=1;whiteSpace=wrap;html=1;" vertex="1" parent="1">
          <mxGeometry x="70" y="320" width="120" height="60" as="geometry" />
        </mxCell>
        <mxCell id="7941T6qGyt0lRl8GdlBB-12" style="edgeStyle=orthogonalEdgeStyle;rounded=0;orthogonalLoop=1;jettySize=auto;html=1;exitX=0.5;exitY=1;exitDx=0;exitDy=0;entryX=0;entryY=0.5;entryDx=0;entryDy=0;" edge="1" parent="1" source="7941T6qGyt0lRl8GdlBB-13" target="7941T6qGyt0lRl8GdlBB-15">
          <mxGeometry relative="1" as="geometry" />
        </mxCell>
        <mxCell id="7941T6qGyt0lRl8GdlBB-13" value="Atencion Urgencia" style="rounded=1;whiteSpace=wrap;html=1;" vertex="1" parent="1">
          <mxGeometry x="200" y="160" width="120" height="60" as="geometry" />
        </mxCell>
        <mxCell id="7941T6qGyt0lRl8GdlBB-14" style="edgeStyle=orthogonalEdgeStyle;rounded=0;orthogonalLoop=1;jettySize=auto;html=1;exitX=0;exitY=0.5;exitDx=0;exitDy=0;entryX=0;entryY=0.5;entryDx=0;entryDy=0;" edge="1" parent="1" source="7941T6qGyt0lRl8GdlBB-15" target="7941T6qGyt0lRl8GdlBB-16">
          <mxGeometry relative="1" as="geometry" />
        </mxCell>
        <mxCell id="7941T6qGyt0lRl8GdlBB-15" value="Ingreso" style="rounded=1;whiteSpace=wrap;html=1;" vertex="1" parent="1">
          <mxGeometry x="240" y="240" width="120" height="60" as="geometry" />
        </mxCell>
        <mxCell id="7941T6qGyt0lRl8GdlBB-38" style="edgeStyle=orthogonalEdgeStyle;rounded=0;orthogonalLoop=1;jettySize=auto;html=1;exitX=0;exitY=0.5;exitDx=0;exitDy=0;entryX=0;entryY=0.5;entryDx=0;entryDy=0;" edge="1" parent="1" source="7941T6qGyt0lRl8GdlBB-16" target="7941T6qGyt0lRl8GdlBB-36">
          <mxGeometry relative="1" as="geometry" />
        </mxCell>
        <mxCell id="7941T6qGyt0lRl8GdlBB-16" value="Triage" style="rounded=1;whiteSpace=wrap;html=1;" vertex="1" parent="1">
          <mxGeometry x="240" y="320" width="120" height="60" as="geometry" />
        </mxCell>
        <mxCell id="7941T6qGyt0lRl8GdlBB-17" value="Actualizar Paciente" style="rounded=1;whiteSpace=wrap;html=1;" vertex="1" parent="1">
          <mxGeometry x="70" y="400" width="120" height="60" as="geometry" />
        </mxCell>
        <mxCell id="7941T6qGyt0lRl8GdlBB-18" style="edgeStyle=orthogonalEdgeStyle;rounded=0;orthogonalLoop=1;jettySize=auto;html=1;exitX=0.5;exitY=1;exitDx=0;exitDy=0;entryX=0;entryY=0.5;entryDx=0;entryDy=0;" edge="1" parent="1" source="7941T6qGyt0lRl8GdlBB-19" target="7941T6qGyt0lRl8GdlBB-21">
          <mxGeometry relative="1" as="geometry" />
        </mxCell>
        <mxCell id="7941T6qGyt0lRl8GdlBB-19" value="Hospitalización" style="rounded=1;whiteSpace=wrap;html=1;" vertex="1" parent="1">
          <mxGeometry x="370" y="160" width="120" height="60" as="geometry" />
        </mxCell>
        <mxCell id="7941T6qGyt0lRl8GdlBB-20" style="edgeStyle=orthogonalEdgeStyle;rounded=0;orthogonalLoop=1;jettySize=auto;html=1;exitX=0;exitY=0.5;exitDx=0;exitDy=0;entryX=0;entryY=0.5;entryDx=0;entryDy=0;" edge="1" parent="1" source="7941T6qGyt0lRl8GdlBB-21" target="7941T6qGyt0lRl8GdlBB-23">
          <mxGeometry relative="1" as="geometry" />
        </mxCell>
        <mxCell id="7941T6qGyt0lRl8GdlBB-21" value="Ingreso" style="rounded=1;whiteSpace=wrap;html=1;" vertex="1" parent="1">
          <mxGeometry x="410" y="240" width="120" height="60" as="geometry" />
        </mxCell>
        <mxCell id="7941T6qGyt0lRl8GdlBB-22" style="edgeStyle=orthogonalEdgeStyle;rounded=0;orthogonalLoop=1;jettySize=auto;html=1;exitX=0;exitY=0.5;exitDx=0;exitDy=0;entryX=0;entryY=0.5;entryDx=0;entryDy=0;" edge="1" parent="1" source="7941T6qGyt0lRl8GdlBB-23" target="7941T6qGyt0lRl8GdlBB-24">
          <mxGeometry relative="1" as="geometry" />
        </mxCell>
        <mxCell id="7941T6qGyt0lRl8GdlBB-23" value="Atención Enfermería" style="rounded=1;whiteSpace=wrap;html=1;" vertex="1" parent="1">
          <mxGeometry x="410" y="320" width="120" height="60" as="geometry" />
        </mxCell>
        <mxCell id="7941T6qGyt0lRl8GdlBB-42" style="edgeStyle=orthogonalEdgeStyle;rounded=0;orthogonalLoop=1;jettySize=auto;html=1;exitX=0;exitY=0.5;exitDx=0;exitDy=0;entryX=0;entryY=0.5;entryDx=0;entryDy=0;" edge="1" parent="1" source="7941T6qGyt0lRl8GdlBB-24" target="7941T6qGyt0lRl8GdlBB-40">
          <mxGeometry relative="1" as="geometry" />
        </mxCell>
        <mxCell id="7941T6qGyt0lRl8GdlBB-24" value="Atención Medica" style="rounded=1;whiteSpace=wrap;html=1;" vertex="1" parent="1">
          <mxGeometry x="410" y="400" width="120" height="60" as="geometry" />
        </mxCell>
        <mxCell id="7941T6qGyt0lRl8GdlBB-25" style="edgeStyle=orthogonalEdgeStyle;rounded=0;orthogonalLoop=1;jettySize=auto;html=1;exitX=0.5;exitY=1;exitDx=0;exitDy=0;entryX=0;entryY=0.5;entryDx=0;entryDy=0;" edge="1" parent="1" source="7941T6qGyt0lRl8GdlBB-26" target="7941T6qGyt0lRl8GdlBB-28">
          <mxGeometry relative="1" as="geometry" />
        </mxCell>
        <mxCell id="7941T6qGyt0lRl8GdlBB-26" value="Centro Quirurgico" style="rounded=1;whiteSpace=wrap;html=1;" vertex="1" parent="1">
          <mxGeometry x="530" y="160" width="120" height="60" as="geometry" />
        </mxCell>
        <mxCell id="7941T6qGyt0lRl8GdlBB-27" style="edgeStyle=orthogonalEdgeStyle;rounded=0;orthogonalLoop=1;jettySize=auto;html=1;exitX=0;exitY=0.5;exitDx=0;exitDy=0;entryX=0;entryY=0.5;entryDx=0;entryDy=0;" edge="1" parent="1" source="7941T6qGyt0lRl8GdlBB-28" target="7941T6qGyt0lRl8GdlBB-30">
          <mxGeometry relative="1" as="geometry" />
        </mxCell>
        <mxCell id="7941T6qGyt0lRl8GdlBB-28" value="Ingreso" style="rounded=1;whiteSpace=wrap;html=1;" vertex="1" parent="1">
          <mxGeometry x="570" y="240" width="120" height="60" as="geometry" />
        </mxCell>
        <mxCell id="7941T6qGyt0lRl8GdlBB-29" style="edgeStyle=orthogonalEdgeStyle;rounded=0;orthogonalLoop=1;jettySize=auto;html=1;exitX=0;exitY=0.5;exitDx=0;exitDy=0;entryX=0;entryY=0.5;entryDx=0;entryDy=0;" edge="1" parent="1" source="7941T6qGyt0lRl8GdlBB-30" target="7941T6qGyt0lRl8GdlBB-31">
          <mxGeometry relative="1" as="geometry" />
        </mxCell>
        <mxCell id="7941T6qGyt0lRl8GdlBB-30" value="Gestión Pabellones" style="rounded=1;whiteSpace=wrap;html=1;" vertex="1" parent="1">
          <mxGeometry x="570" y="320" width="120" height="60" as="geometry" />
        </mxCell>
        <mxCell id="7941T6qGyt0lRl8GdlBB-45" style="edgeStyle=orthogonalEdgeStyle;rounded=0;orthogonalLoop=1;jettySize=auto;html=1;exitX=0;exitY=0.5;exitDx=0;exitDy=0;entryX=0;entryY=0.5;entryDx=0;entryDy=0;" edge="1" parent="1" source="7941T6qGyt0lRl8GdlBB-31" target="7941T6qGyt0lRl8GdlBB-44">
          <mxGeometry relative="1" as="geometry" />
        </mxCell>
        <mxCell id="7941T6qGyt0lRl8GdlBB-31" value="Registro Cirugía" style="rounded=1;whiteSpace=wrap;html=1;" vertex="1" parent="1">
          <mxGeometry x="570" y="400" width="120" height="60" as="geometry" />
        </mxCell>
        <mxCell id="7941T6qGyt0lRl8GdlBB-32" style="edgeStyle=orthogonalEdgeStyle;rounded=0;orthogonalLoop=1;jettySize=auto;html=1;exitX=0.5;exitY=1;exitDx=0;exitDy=0;entryX=0;entryY=0.5;entryDx=0;entryDy=0;" edge="1" parent="1" source="7941T6qGyt0lRl8GdlBB-33" target="7941T6qGyt0lRl8GdlBB-34">
          <mxGeometry relative="1" as="geometry" />
        </mxCell>
        <mxCell id="7941T6qGyt0lRl8GdlBB-33" value="Atenciones Médicas" style="rounded=1;whiteSpace=wrap;html=1;" vertex="1" parent="1">
          <mxGeometry x="690" y="160" width="120" height="60" as="geometry" />
        </mxCell>
        <mxCell id="7941T6qGyt0lRl8GdlBB-47" style="edgeStyle=orthogonalEdgeStyle;rounded=0;orthogonalLoop=1;jettySize=auto;html=1;exitX=0;exitY=0.5;exitDx=0;exitDy=0;entryX=0;entryY=0.5;entryDx=0;entryDy=0;" edge="1" parent="1" source="7941T6qGyt0lRl8GdlBB-34" target="7941T6qGyt0lRl8GdlBB-46">
          <mxGeometry relative="1" as="geometry" />
        </mxCell>
        <mxCell id="7941T6qGyt0lRl8GdlBB-34" value="Citados por Día" style="rounded=1;whiteSpace=wrap;html=1;" vertex="1" parent="1">
          <mxGeometry x="730" y="240" width="120" height="60" as="geometry" />
        </mxCell>
        <mxCell id="7941T6qGyt0lRl8GdlBB-35" style="edgeStyle=orthogonalEdgeStyle;rounded=0;orthogonalLoop=1;jettySize=auto;html=1;exitX=0.5;exitY=1;exitDx=0;exitDy=0;entryX=0.575;entryY=0.033;entryDx=0;entryDy=0;entryPerimeter=0;" edge="1" parent="1" source="7941T6qGyt0lRl8GdlBB-5" target="7941T6qGyt0lRl8GdlBB-19">
          <mxGeometry relative="1" as="geometry" />
        </mxCell>
        <mxCell id="7941T6qGyt0lRl8GdlBB-39" style="edgeStyle=orthogonalEdgeStyle;rounded=0;orthogonalLoop=1;jettySize=auto;html=1;exitX=0;exitY=0.5;exitDx=0;exitDy=0;entryX=0;entryY=0.5;entryDx=0;entryDy=0;" edge="1" parent="1" source="7941T6qGyt0lRl8GdlBB-36" target="7941T6qGyt0lRl8GdlBB-37">
          <mxGeometry relative="1" as="geometry" />
        </mxCell>
        <mxCell id="7941T6qGyt0lRl8GdlBB-36" value="Atención" style="rounded=1;whiteSpace=wrap;html=1;" vertex="1" parent="1">
          <mxGeometry x="240" y="400" width="120" height="60" as="geometry" />
        </mxCell>
        <mxCell id="7941T6qGyt0lRl8GdlBB-37" value="Alta" style="rounded=1;whiteSpace=wrap;html=1;" vertex="1" parent="1">
          <mxGeometry x="240" y="480" width="120" height="60" as="geometry" />
        </mxCell>
        <mxCell id="7941T6qGyt0lRl8GdlBB-43" style="edgeStyle=orthogonalEdgeStyle;rounded=0;orthogonalLoop=1;jettySize=auto;html=1;exitX=0;exitY=0.5;exitDx=0;exitDy=0;entryX=0;entryY=0.5;entryDx=0;entryDy=0;" edge="1" parent="1" source="7941T6qGyt0lRl8GdlBB-40" target="7941T6qGyt0lRl8GdlBB-41">
          <mxGeometry relative="1" as="geometry" />
        </mxCell>
        <mxCell id="7941T6qGyt0lRl8GdlBB-40" value="Alta" style="rounded=1;whiteSpace=wrap;html=1;" vertex="1" parent="1">
          <mxGeometry x="410" y="480" width="120" height="60" as="geometry" />
        </mxCell>
        <mxCell id="7941T6qGyt0lRl8GdlBB-41" value="Gestión Camas" style="rounded=1;whiteSpace=wrap;html=1;" vertex="1" parent="1">
          <mxGeometry x="410" y="560" width="120" height="60" as="geometry" />
        </mxCell>
        <mxCell id="7941T6qGyt0lRl8GdlBB-44" value="Alta" style="rounded=1;whiteSpace=wrap;html=1;" vertex="1" parent="1">
          <mxGeometry x="570" y="480" width="120" height="60" as="geometry" />
        </mxCell>
        <mxCell id="7941T6qGyt0lRl8GdlBB-46" value="Atención Medica" style="rounded=1;whiteSpace=wrap;html=1;" vertex="1" parent="1">
          <mxGeometry x="730" y="320" width="120" height="60" as="geometry" />
        </mxCell>
        <mxCell id="7941T6qGyt0lRl8GdlBB-48" style="edgeStyle=orthogonalEdgeStyle;rounded=0;orthogonalLoop=1;jettySize=auto;html=1;exitX=0.5;exitY=1;exitDx=0;exitDy=0;entryX=0;entryY=0.5;entryDx=0;entryDy=0;" edge="1" parent="1" source="7941T6qGyt0lRl8GdlBB-49" target="7941T6qGyt0lRl8GdlBB-51">
          <mxGeometry relative="1" as="geometry" />
        </mxCell>
        <mxCell id="7941T6qGyt0lRl8GdlBB-49" value="Imagenología" style="rounded=1;whiteSpace=wrap;html=1;" vertex="1" parent="1">
          <mxGeometry x="850" y="160" width="120" height="60" as="geometry" />
        </mxCell>
        <mxCell id="7941T6qGyt0lRl8GdlBB-54" style="edgeStyle=orthogonalEdgeStyle;rounded=0;orthogonalLoop=1;jettySize=auto;html=1;exitX=0;exitY=0.5;exitDx=0;exitDy=0;entryX=0;entryY=0.5;entryDx=0;entryDy=0;" edge="1" parent="1" source="7941T6qGyt0lRl8GdlBB-51" target="7941T6qGyt0lRl8GdlBB-52">
          <mxGeometry relative="1" as="geometry" />
        </mxCell>
        <mxCell id="7941T6qGyt0lRl8GdlBB-51" value="Cargar Examen" style="rounded=1;whiteSpace=wrap;html=1;" vertex="1" parent="1">
          <mxGeometry x="890" y="240" width="120" height="60" as="geometry" />
        </mxCell>
        <mxCell id="7941T6qGyt0lRl8GdlBB-55" style="edgeStyle=orthogonalEdgeStyle;rounded=0;orthogonalLoop=1;jettySize=auto;html=1;exitX=0;exitY=0.5;exitDx=0;exitDy=0;entryX=0;entryY=0.5;entryDx=0;entryDy=0;" edge="1" parent="1" source="7941T6qGyt0lRl8GdlBB-52" target="7941T6qGyt0lRl8GdlBB-53">
          <mxGeometry relative="1" as="geometry" />
        </mxCell>
        <mxCell id="7941T6qGyt0lRl8GdlBB-52" value="Listar Citados" style="rounded=1;whiteSpace=wrap;html=1;" vertex="1" parent="1">
          <mxGeometry x="890" y="320" width="120" height="60" as="geometry" />
        </mxCell>
        <mxCell id="7941T6qGyt0lRl8GdlBB-53" value="Mantenedor" style="rounded=1;whiteSpace=wrap;html=1;" vertex="1" parent="1">
          <mxGeometry x="890" y="400" width="120" height="60" as="geometry" />
        </mxCell>
        <mxCell id="7941T6qGyt0lRl8GdlBB-56" style="edgeStyle=orthogonalEdgeStyle;rounded=0;orthogonalLoop=1;jettySize=auto;html=1;exitX=0.5;exitY=1;exitDx=0;exitDy=0;entryX=0;entryY=0.5;entryDx=0;entryDy=0;" edge="1" parent="1" source="7941T6qGyt0lRl8GdlBB-57" target="7941T6qGyt0lRl8GdlBB-59">
          <mxGeometry relative="1" as="geometry" />
        </mxCell>
        <mxCell id="7941T6qGyt0lRl8GdlBB-57" value="Labotario" style="rounded=1;whiteSpace=wrap;html=1;" vertex="1" parent="1">
          <mxGeometry x="1010" y="160" width="120" height="60" as="geometry" />
        </mxCell>
        <mxCell id="7941T6qGyt0lRl8GdlBB-58" style="edgeStyle=orthogonalEdgeStyle;rounded=0;orthogonalLoop=1;jettySize=auto;html=1;exitX=0;exitY=0.5;exitDx=0;exitDy=0;entryX=0;entryY=0.5;entryDx=0;entryDy=0;" edge="1" parent="1" source="7941T6qGyt0lRl8GdlBB-59" target="7941T6qGyt0lRl8GdlBB-61">
          <mxGeometry relative="1" as="geometry" />
        </mxCell>
        <mxCell id="7941T6qGyt0lRl8GdlBB-59" value="Mantenedor" style="rounded=1;whiteSpace=wrap;html=1;" vertex="1" parent="1">
          <mxGeometry x="1050" y="240" width="120" height="60" as="geometry" />
        </mxCell>
        <mxCell id="7941T6qGyt0lRl8GdlBB-60" style="edgeStyle=orthogonalEdgeStyle;rounded=0;orthogonalLoop=1;jettySize=auto;html=1;exitX=0;exitY=0.5;exitDx=0;exitDy=0;entryX=0;entryY=0.5;entryDx=0;entryDy=0;" edge="1" parent="1" source="7941T6qGyt0lRl8GdlBB-61" target="7941T6qGyt0lRl8GdlBB-62">
          <mxGeometry relative="1" as="geometry" />
        </mxCell>
        <mxCell id="7941T6qGyt0lRl8GdlBB-61" value="Listar Citados" style="rounded=1;whiteSpace=wrap;html=1;" vertex="1" parent="1">
          <mxGeometry x="1050" y="320" width="120" height="60" as="geometry" />
        </mxCell>
        <mxCell id="7941T6qGyt0lRl8GdlBB-62" value="Cargar Examen" style="rounded=1;whiteSpace=wrap;html=1;" vertex="1" parent="1">
          <mxGeometry x="1050" y="400" width="120" height="60" as="geometry" />
        </mxCell>
        <mxCell id="7941T6qGyt0lRl8GdlBB-63" style="edgeStyle=orthogonalEdgeStyle;rounded=0;orthogonalLoop=1;jettySize=auto;html=1;exitX=0.5;exitY=1;exitDx=0;exitDy=0;entryX=0;entryY=0.5;entryDx=0;entryDy=0;" edge="1" parent="1" source="7941T6qGyt0lRl8GdlBB-64" target="7941T6qGyt0lRl8GdlBB-66">
          <mxGeometry relative="1" as="geometry" />
        </mxCell>
        <mxCell id="7941T6qGyt0lRl8GdlBB-64" value="Banco de Sangre" style="rounded=1;whiteSpace=wrap;html=1;" vertex="1" parent="1">
          <mxGeometry x="1170" y="160" width="120" height="60" as="geometry" />
        </mxCell>
        <mxCell id="7941T6qGyt0lRl8GdlBB-65" style="edgeStyle=orthogonalEdgeStyle;rounded=0;orthogonalLoop=1;jettySize=auto;html=1;exitX=0;exitY=0.5;exitDx=0;exitDy=0;entryX=0;entryY=0.5;entryDx=0;entryDy=0;" edge="1" parent="1" source="7941T6qGyt0lRl8GdlBB-66" target="7941T6qGyt0lRl8GdlBB-68">
          <mxGeometry relative="1" as="geometry" />
        </mxCell>
        <mxCell id="7941T6qGyt0lRl8GdlBB-66" value="Ingreso" style="rounded=1;whiteSpace=wrap;html=1;" vertex="1" parent="1">
          <mxGeometry x="1210" y="240" width="120" height="60" as="geometry" />
        </mxCell>
        <mxCell id="7941T6qGyt0lRl8GdlBB-67" style="edgeStyle=orthogonalEdgeStyle;rounded=0;orthogonalLoop=1;jettySize=auto;html=1;exitX=0;exitY=0.5;exitDx=0;exitDy=0;entryX=0;entryY=0.5;entryDx=0;entryDy=0;" edge="1" parent="1" source="7941T6qGyt0lRl8GdlBB-68" target="7941T6qGyt0lRl8GdlBB-69">
          <mxGeometry relative="1" as="geometry" />
        </mxCell>
        <mxCell id="7941T6qGyt0lRl8GdlBB-68" value="Listar Citados" style="rounded=1;whiteSpace=wrap;html=1;" vertex="1" parent="1">
          <mxGeometry x="1210" y="320" width="120" height="60" as="geometry" />
        </mxCell>
        <mxCell id="7941T6qGyt0lRl8GdlBB-69" value="Registrar Donación" style="rounded=1;whiteSpace=wrap;html=1;" vertex="1" parent="1">
          <mxGeometry x="1210" y="400" width="120" height="60" as="geometry" />
        </mxCell>
      </root>
    </mxGraphModel>
  </diagram>
  <diagram id="52Pm8LTfiexp-_pRffbo" name="Administrador">
    <mxGraphModel dx="1386" dy="715" grid="1" gridSize="10" guides="1" tooltips="1" connect="1" arrows="1" fold="1" page="1" pageScale="1" pageWidth="850" pageHeight="1100" math="0" shadow="0">
      <root>
        <mxCell id="0" />
        <mxCell id="1" parent="0" />
        <mxCell id="OQvyrQJkwyezdrpzQPXM-1" style="edgeStyle=orthogonalEdgeStyle;rounded=0;orthogonalLoop=1;jettySize=auto;html=1;exitX=0.5;exitY=1;exitDx=0;exitDy=0;entryX=0.5;entryY=0;entryDx=0;entryDy=0;" edge="1" parent="1" source="AmpI-ciloSuqTU_jg_DO-5" target="AmpI-ciloSuqTU_jg_DO-7">
          <mxGeometry relative="1" as="geometry" />
        </mxCell>
        <mxCell id="AmpI-ciloSuqTU_jg_DO-5" value="Administrador" style="rounded=1;whiteSpace=wrap;html=1;fillColor=#FF9999;" vertex="1" parent="1">
          <mxGeometry x="380" y="60" width="120" height="60" as="geometry" />
        </mxCell>
        <mxCell id="AmpI-ciloSuqTU_jg_DO-6" style="edgeStyle=orthogonalEdgeStyle;rounded=0;orthogonalLoop=1;jettySize=auto;html=1;exitX=0.5;exitY=1;exitDx=0;exitDy=0;entryX=0;entryY=0.5;entryDx=0;entryDy=0;" edge="1" parent="1" source="AmpI-ciloSuqTU_jg_DO-7" target="AmpI-ciloSuqTU_jg_DO-9">
          <mxGeometry relative="1" as="geometry" />
        </mxCell>
        <mxCell id="AmpI-ciloSuqTU_jg_DO-7" value="Usuario" style="rounded=1;whiteSpace=wrap;html=1;" vertex="1" parent="1">
          <mxGeometry x="380" y="140" width="120" height="60" as="geometry" />
        </mxCell>
        <mxCell id="AmpI-ciloSuqTU_jg_DO-8" style="edgeStyle=orthogonalEdgeStyle;rounded=0;orthogonalLoop=1;jettySize=auto;html=1;exitX=0;exitY=0.5;exitDx=0;exitDy=0;entryX=0;entryY=0.5;entryDx=0;entryDy=0;" edge="1" parent="1" source="AmpI-ciloSuqTU_jg_DO-9" target="AmpI-ciloSuqTU_jg_DO-11">
          <mxGeometry relative="1" as="geometry" />
        </mxCell>
        <mxCell id="AmpI-ciloSuqTU_jg_DO-9" value="Crear Usuario" style="rounded=1;whiteSpace=wrap;html=1;" vertex="1" parent="1">
          <mxGeometry x="420" y="220" width="120" height="60" as="geometry" />
        </mxCell>
        <mxCell id="AmpI-ciloSuqTU_jg_DO-10" style="edgeStyle=orthogonalEdgeStyle;rounded=0;orthogonalLoop=1;jettySize=auto;html=1;exitX=0;exitY=0.5;exitDx=0;exitDy=0;entryX=0;entryY=0.5;entryDx=0;entryDy=0;" edge="1" parent="1" source="AmpI-ciloSuqTU_jg_DO-11" target="AmpI-ciloSuqTU_jg_DO-17">
          <mxGeometry relative="1" as="geometry" />
        </mxCell>
        <mxCell id="AmpI-ciloSuqTU_jg_DO-11" value="Editar Usuario" style="rounded=1;whiteSpace=wrap;html=1;" vertex="1" parent="1">
          <mxGeometry x="420" y="300" width="120" height="60" as="geometry" />
        </mxCell>
        <mxCell id="AmpI-ciloSuqTU_jg_DO-17" value="Eliminar Usuario" style="rounded=1;whiteSpace=wrap;html=1;" vertex="1" parent="1">
          <mxGeometry x="420" y="380" width="120" height="60" as="geometry" />
        </mxCell>
      </root>
    </mxGraphModel>
  </diagram>
</mxfile>
